<svg xmlns="http://www.w3.org/2000/svg" width="100%" viewBox="0 0 129 32" fill="none" class="logo-svg"><path d="M4.12903 0.330321V31.711H0V0.330321H4.12903ZM0 27.9123H9.49677V31.711H0V27.9123Z" fill="#fff"></path><path d="M15.409 32C13.5372 32 12.1333 31.5183 11.1974 30.5548C10.2615 29.5639 9.79355 27.8021 9.79355 25.2697V6.60645C9.79355 4.87226 10.0138 3.52344 10.4542 2.56C10.8946 1.59656 11.514 0.935913 12.3123 0.578064C13.1381 0.192688 14.1703 0 15.409 0C16.6477 0 17.6662 0.192688 18.4645 0.578064C19.2903 0.935913 19.9234 1.59656 20.3639 2.56C20.8318 3.52344 21.0658 4.87226 21.0658 6.60645V25.2697C21.0658 27.8021 20.5841 29.5639 19.6206 30.5548C18.6847 31.5183 17.2809 32 15.409 32ZM15.4503 27.9948C16.0009 27.9948 16.4 27.8159 16.6477 27.4581C16.8955 27.0727 17.0194 26.4809 17.0194 25.6826V6.4C17.0194 5.21634 16.8955 4.41806 16.6477 4.00516C16.4 3.56473 16.0009 3.34451 15.4503 3.34451C14.8998 3.34451 14.5006 3.56473 14.2529 4.00516C14.0052 4.41806 13.8813 5.21634 13.8813 6.4V25.6826C13.8813 26.4809 14.0052 27.0727 14.2529 27.4581C14.5006 27.8159 14.8998 27.9948 15.4503 27.9948Z" fill="#fff"></path><path d="M28.0752 32C26.2309 32 24.827 31.532 23.8635 30.5961C22.9001 29.6327 22.4184 27.9123 22.4184 25.4348V0.330321H26.5061V25.7239C26.5061 26.5222 26.63 27.1002 26.8777 27.4581C27.1255 27.8159 27.5246 27.9948 28.0752 27.9948C28.5982 27.9948 28.9835 27.8159 29.2313 27.4581C29.479 27.1002 29.6029 26.5222 29.6029 25.7239L29.6442 0.330321H33.6906V25.4348C33.6906 27.0589 33.4704 28.3527 33.03 29.3161C32.5896 30.2796 31.9564 30.9677 31.1306 31.3806C30.3324 31.7935 29.3139 32 28.0752 32Z" fill="#fff"></path><path d="M35.2016 0.330321H40.7758C42.0145 0.330321 43.0605 0.564299 43.9139 1.03226C44.7672 1.47269 45.4003 2.07828 45.8132 2.84903C46.2537 3.61978 46.4739 4.50064 46.4739 5.49161V26.5497C46.4739 27.5406 46.2537 28.4215 45.8132 29.1923C45.4003 29.963 44.7672 30.5824 43.9139 31.0503C43.0605 31.4908 42.0145 31.711 40.7758 31.711H35.2016V0.330321ZM40.7758 27.9535C41.3539 27.9535 41.7668 27.8021 42.0145 27.4994C42.2623 27.1966 42.3861 26.6598 42.3861 25.889V6.19355C42.3861 5.45032 42.2623 4.91355 42.0145 4.58323C41.7668 4.2529 41.3539 4.08774 40.7758 4.08774H39.2894V27.9535H40.7758Z" fill="#fff"></path><path d="M56.7397 32C54.8678 32 53.464 31.5045 52.5281 30.5135C51.5921 29.5226 51.1242 27.7746 51.1242 25.2697V6.4C51.1242 4.72086 51.3444 3.41333 51.7848 2.47742C52.2528 1.5415 52.8859 0.894622 53.6842 0.536772C54.4825 0.178924 55.501 0 56.7397 0C57.9784 0 58.9969 0.192688 59.7952 0.578064C60.621 0.963441 61.2541 1.65161 61.6945 2.64258C62.1625 3.60602 62.3965 4.94107 62.3965 6.64774V13.9974H58.3087V5.69806C58.3087 4.89978 58.1848 4.30796 57.9371 3.92258C57.6894 3.5372 57.2902 3.34451 56.7397 3.34451C56.2167 3.34451 55.8313 3.52344 55.5835 3.88129C55.3633 4.23914 55.2532 4.8172 55.2532 5.61548V25.8477C55.2532 26.4809 55.3358 27.0039 55.501 27.4168C55.6936 27.8022 56.1203 27.9948 56.781 27.9948C57.3315 27.9948 57.7169 27.8297 57.9371 27.4994C58.1848 27.169 58.3087 26.6323 58.3087 25.889V17.7961H62.3965V25.2697C62.3965 27.8021 61.9147 29.5639 60.9513 30.5548C60.0154 31.5183 58.6115 32 56.7397 32Z" fill="#fff"></path><path d="M69.0784 32C67.2066 32 65.8027 31.5183 64.8668 30.5548C63.9309 29.5639 63.4629 27.8021 63.4629 25.2697V6.60645C63.4629 4.87226 63.6831 3.52344 64.1235 2.56C64.564 1.59656 65.1833 0.935913 65.9816 0.578064C66.8074 0.192688 67.8397 0 69.0784 0C70.3171 0 71.3356 0.192688 72.1339 0.578064C72.9597 0.935913 73.5928 1.59656 74.0332 2.56C74.5012 3.52344 74.7352 4.87226 74.7352 6.60645V25.2697C74.7352 27.8021 74.2534 29.5639 73.29 30.5548C72.3541 31.5183 70.9502 32 69.0784 32ZM69.1197 27.9948C69.6702 27.9948 70.0694 27.8159 70.3171 27.4581C70.5648 27.0727 70.6887 26.4809 70.6887 25.6826V6.4C70.6887 5.21634 70.5648 4.41806 70.3171 4.00516C70.0694 3.56473 69.6702 3.34451 69.1197 3.34451C68.5691 3.34451 68.17 3.56473 67.9223 4.00516C67.6745 4.41806 67.5506 5.21634 67.5506 6.4V25.6826C67.5506 26.4809 67.6745 27.0727 67.9223 27.4581C68.17 27.8159 68.5691 27.9948 69.1197 27.9948Z" fill="#fff"></path><path d="M80.2581 0.330321V31.711H76.129V0.330321H80.2581ZM76.129 27.9123H85.6258V31.711H76.129V27.9123Z" fill="#fff"></path><path d="M91.5381 32C89.6662 32 88.2624 31.5183 87.3264 30.5548C86.3905 29.5639 85.9226 27.8021 85.9226 25.2697V6.60645C85.9226 4.87226 86.1428 3.52344 86.5832 2.56C87.0237 1.59656 87.643 0.935913 88.4413 0.578064C89.2671 0.192688 90.2993 0 91.5381 0C92.7768 0 93.7953 0.192688 94.5935 0.578064C95.4193 0.935913 96.0525 1.59656 96.4929 2.56C96.9609 3.52344 97.1948 4.87226 97.1948 6.60645V25.2697C97.1948 27.8021 96.7131 29.5639 95.7497 30.5548C94.8138 31.5183 93.4099 32 91.5381 32ZM91.5794 27.9948C92.1299 27.9948 92.529 27.8159 92.7768 27.4581C93.0245 27.0727 93.1484 26.4809 93.1484 25.6826V6.4C93.1484 5.21634 93.0245 4.41806 92.7768 4.00516C92.529 3.56473 92.1299 3.34451 91.5794 3.34451C91.0288 3.34451 90.6297 3.56473 90.3819 4.00516C90.1342 4.41806 90.0103 5.21634 90.0103 6.4V25.6826C90.0103 26.4809 90.1342 27.0727 90.3819 27.4581C90.6297 27.8159 91.0288 27.9948 91.5794 27.9948Z" fill="#fff"></path><path d="M98.5887 0.330321H104.411C105.594 0.330321 106.599 0.564299 107.425 1.03226C108.251 1.50021 108.856 2.16086 109.242 3.01419C109.655 3.84 109.861 4.80344 109.861 5.90452V11.231C109.861 12.5798 109.613 13.6258 109.118 14.369C108.622 15.1123 107.934 15.5527 107.053 15.6903V15.7316C107.962 15.8417 108.65 16.2133 109.118 16.8465C109.586 17.4796 109.82 18.3467 109.82 19.4477V29.7703C109.82 30.3209 109.833 30.6925 109.861 30.8852C109.916 31.0778 109.999 31.2292 110.109 31.3394V31.711H106.145L106.062 31.5458C105.98 31.2705 105.925 30.8989 105.897 30.431C105.87 29.9355 105.856 29.1372 105.856 28.0361V19.489C105.856 18.966 105.759 18.5944 105.567 18.3742C105.402 18.1264 105.099 18.0026 104.658 18.0026H103.378C103.131 18.0026 102.952 18.0714 102.842 18.209C102.759 18.3467 102.718 18.5944 102.718 18.9523V31.711H98.5887V0.330321ZM104.576 13.9561C104.961 13.9561 105.264 13.8185 105.484 13.5432C105.732 13.2404 105.856 12.7862 105.856 12.1806V6.11097C105.856 5.50538 105.732 5.02365 105.484 4.6658C105.236 4.28043 104.768 4.08774 104.08 4.08774H102.718V13.9561H104.576Z" fill="#fff"></path><path d="M116.453 32C115.214 32 114.182 31.8073 113.356 31.4219C112.558 31.009 111.938 30.3071 111.498 29.3161C111.057 28.3252 110.837 26.9763 110.837 25.2697V20.8103H114.925V25.7239C114.925 26.412 115.021 26.9626 115.214 27.3755C115.407 27.7884 115.833 27.9948 116.494 27.9948C117.127 27.9948 117.54 27.8159 117.733 27.4581C117.925 27.0727 118.022 26.5634 118.022 25.9303C118.022 25.8477 118.022 25.7789 118.022 25.7239V21.76C117.994 21.0168 117.856 20.3286 117.609 19.6955C117.361 19.0348 116.934 18.4705 116.329 18.0026L114.14 16.3097C114.003 16.172 113.879 16.0619 113.769 15.9794C113.686 15.8968 113.576 15.8004 113.438 15.6903C112.833 15.1123 112.379 14.5617 112.076 14.0387C111.69 13.4331 111.401 12.7587 111.209 12.0155C111.044 11.2723 110.947 10.3501 110.92 9.24903C110.92 9.00129 110.92 8.76731 110.92 8.54709V6.48258C110.92 4.80344 111.126 3.49591 111.539 2.56C111.979 1.59656 112.599 0.935913 113.397 0.578064C114.223 0.192688 115.228 0 116.411 0C117.622 0 118.627 0.192688 119.425 0.578064C120.251 0.935913 120.898 1.59656 121.366 2.56C121.834 3.52344 122.068 4.85849 122.068 6.56516V11.0658H117.98V6.44129C117.98 6.41376 117.98 6.4 117.98 6.4C117.98 6.37247 117.98 6.34495 117.98 6.31742C117.98 5.62925 117.884 5.06494 117.691 4.62452C117.499 4.15656 117.086 3.92258 116.453 3.92258C115.819 3.92258 115.42 4.15656 115.255 4.62452C115.09 5.06494 115.007 5.65677 115.007 6.4C115.007 6.4 115.007 6.41376 115.007 6.44129V9.90968C115.007 9.9372 115.007 9.97849 115.007 10.0335C115.007 10.474 115.049 10.8594 115.131 11.1897C115.241 11.4925 115.407 11.7953 115.627 12.0981C115.819 12.3733 116.053 12.6624 116.329 12.9652C116.632 13.268 116.948 13.557 117.278 13.8323L117.98 14.4516L120.375 16.4335C121.091 17.0391 121.545 17.7273 121.738 18.4981C121.958 19.2688 122.082 20.4249 122.109 21.9664V25.2697C122.109 26.8387 121.917 28.1187 121.531 29.1097C121.173 30.0731 120.582 30.8026 119.756 31.2981C118.93 31.766 117.829 32 116.453 32Z" fill="#fff"></path><path d="M124.41 3.04825C124.41 2.76314 124.48 2.50323 124.619 2.26854C124.758 2.03384 124.945 1.84695 125.18 1.70787C125.414 1.56879 125.674 1.49925 125.959 1.49925C126.206 1.49925 126.434 1.55227 126.643 1.65832C126.853 1.76437 127.027 1.90954 127.164 2.09382C127.301 2.27636 127.387 2.48324 127.42 2.71446H126.789C126.754 2.53539 126.657 2.38936 126.499 2.27636C126.341 2.16162 126.161 2.10425 125.959 2.10425C125.785 2.10425 125.627 2.14684 125.485 2.23203C125.342 2.31721 125.228 2.43108 125.143 2.57364C125.058 2.7162 125.015 2.8744 125.015 3.04825C125.015 3.2221 125.058 3.38031 125.143 3.52286C125.228 3.66542 125.342 3.77929 125.485 3.86448C125.627 3.94966 125.785 3.99226 125.959 3.99226C126.161 3.99226 126.331 3.93576 126.47 3.82275C126.611 3.70801 126.7 3.56111 126.736 3.38204H127.368C127.334 3.61326 127.254 3.82102 127.125 4.0053C126.996 4.18784 126.831 4.33213 126.63 4.43818C126.43 4.54423 126.206 4.59726 125.959 4.59726C125.674 4.59726 125.414 4.52771 125.18 4.38864C124.945 4.24956 124.758 4.06267 124.619 3.82797C124.48 3.59327 124.41 3.33337 124.41 3.04825ZM125.933 5.80204C125.554 5.80204 125.198 5.73076 124.864 5.5882C124.532 5.44564 124.239 5.24832 123.985 4.99624C123.733 4.74242 123.535 4.44948 123.391 4.11743C123.248 3.78538 123.178 3.42898 123.179 3.04825C123.181 2.66752 123.253 2.31113 123.396 1.97907C123.54 1.64702 123.738 1.35495 123.99 1.10287C124.243 0.84905 124.535 0.650861 124.867 0.508304C125.199 0.365747 125.554 0.294469 125.933 0.294469C126.314 0.294469 126.67 0.365747 127.002 0.508304C127.336 0.650861 127.628 0.84905 127.879 1.10287C128.131 1.35495 128.328 1.64702 128.471 1.97907C128.613 2.31113 128.685 2.66752 128.687 3.04825C128.689 3.42898 128.618 3.78538 128.476 4.11743C128.333 4.44948 128.136 4.74242 127.884 4.99624C127.632 5.24832 127.339 5.44564 127.005 5.5882C126.671 5.73076 126.314 5.80204 125.933 5.80204ZM125.933 5.19704C126.231 5.19704 126.51 5.14141 126.77 5.03014C127.031 4.91888 127.26 4.76502 127.456 4.56857C127.653 4.37212 127.806 4.14438 127.918 3.88534C128.029 3.62456 128.084 3.3464 128.082 3.05086C128.08 2.75358 128.024 2.47455 127.913 2.21377C127.801 1.953 127.647 1.72438 127.451 1.52793C127.255 1.33148 127.027 1.17763 126.768 1.06636C126.509 0.955099 126.231 0.899467 125.933 0.899467C125.638 0.899467 125.36 0.955099 125.101 1.06636C124.842 1.17763 124.615 1.33235 124.418 1.53054C124.222 1.72699 124.067 1.95561 123.954 2.21638C123.843 2.47542 123.786 2.75358 123.784 3.05086C123.783 3.34467 123.837 3.62196 123.949 3.88273C124.06 4.14177 124.214 4.36951 124.41 4.56596C124.609 4.76241 124.837 4.91714 125.096 5.03014C125.357 5.14141 125.636 5.19704 125.933 5.19704Z" fill="#fff"></path></svg>