<svg xmlns="http://www.w3.org/2000/svg" width="100%" viewBox="0 0 1696 474" fill="none"><g style="mix-blend-mode:difference"><path d="M57.3489 5.60372V469.632H0V5.60372H57.3489ZM0 413.46H131.903V469.632H0V413.46Z" fill="#fff" class="footer_logo_letter" data-svg-origin="0 5.603720188140869" transform="matrix(1,0,0,1,0,232.01413)" style="translate: none; rotate: none; scale: none; transform-origin: 0px 0px;"></path><path d="M214.019 473.906C188.021 473.906 168.522 466.782 155.523 452.536C142.524 437.882 136.024 411.832 136.024 374.384V98.4093C136.024 72.7657 139.083 52.8206 145.2 38.5741C151.317 24.3277 159.92 14.5587 171.007 9.26712C182.477 3.56853 196.814 0.719238 214.019 0.719238C231.224 0.719238 245.37 3.56853 256.457 9.26712C267.927 14.5587 276.72 24.3277 282.838 38.5741C289.337 52.8206 292.587 72.7657 292.587 98.4093V374.384C292.587 411.832 285.896 437.882 272.515 452.536C259.516 466.782 240.017 473.906 214.019 473.906ZM214.592 414.681C222.239 414.681 227.783 412.035 231.224 406.744C234.665 401.045 236.385 392.294 236.385 380.49V95.3565C236.385 77.8537 234.665 66.0495 231.224 59.9439C227.783 53.4312 222.239 50.1748 214.592 50.1748C206.946 50.1748 201.402 53.4312 197.961 59.9439C194.52 66.0495 192.8 77.8537 192.8 95.3565V380.49C192.8 392.294 194.52 401.045 197.961 406.744C201.402 412.035 206.946 414.681 214.592 414.681Z" fill="#fff" class="footer_logo_letter" data-svg-origin="136.0240020751953 0.7192379236221313" transform="matrix(1,0,0,1,0,236.59338)" style="translate: none; rotate: none; scale: none; transform-origin: 0px 0px;"></path><path d="M389.941 473.906C364.325 473.906 344.827 466.986 331.445 453.147C318.064 438.9 311.373 413.46 311.373 376.826V5.60372H368.149V381.1C368.149 392.904 369.869 401.452 373.31 406.744C376.751 412.035 382.295 414.681 389.941 414.681C397.205 414.681 402.558 412.035 405.999 406.744C409.44 401.452 411.16 392.904 411.16 381.1L411.734 5.60372H467.936V376.826C467.936 400.842 464.877 419.973 458.76 434.219C452.643 448.466 443.849 458.642 432.379 464.747C421.292 470.853 407.146 473.906 389.941 473.906Z" fill="#fff" class="footer_logo_letter" data-svg-origin="311.37298583984375 5.603720188140869" transform="matrix(1,0,0,1,0,234.15114)" style="translate: none; rotate: none; scale: none; transform-origin: 0px 0px;"></path><path d="M488.922 5.60372H566.343C583.548 5.60372 598.076 9.06358 609.928 15.9833C621.78 22.496 630.574 31.4509 636.309 42.8481C642.426 54.2453 645.484 67.2706 645.484 81.9241V393.311C645.484 407.965 642.426 420.99 636.309 432.387C630.574 443.785 621.78 452.943 609.928 459.863C598.076 466.375 583.548 469.632 566.343 469.632H488.922V5.60372ZM566.343 414.071C574.372 414.071 580.107 411.832 583.548 407.354C586.989 402.877 588.709 394.94 588.709 383.542V92.3037C588.709 81.3136 586.989 73.3762 583.548 68.4918C580.107 63.6072 574.372 61.165 566.343 61.165H545.697V414.071H566.343Z" fill="#fff" class="footer_logo_letter" data-svg-origin="488.9219970703125 5.603720188140869" transform="matrix(1,0,0,1,0,232.01413)" style="translate: none; rotate: none; scale: none; transform-origin: 0px 0px;"></path><path d="M788.068 473.906C762.07 473.906 742.571 466.579 729.572 451.925C716.573 437.272 710.074 411.425 710.074 374.384V95.3565C710.074 70.5269 713.132 51.1925 719.249 37.353C725.749 23.5136 734.542 13.9481 745.63 8.65653C756.717 3.365 770.863 0.719238 788.068 0.719238C805.273 0.719238 819.419 3.56853 830.506 9.26712C841.976 14.9657 850.77 25.1418 856.887 39.7953C863.386 54.0417 866.636 73.7833 866.636 99.0199V207.7H809.861V84.9769C809.861 73.1727 808.14 64.4213 804.699 58.7227C801.258 53.0241 795.715 50.1748 788.068 50.1748C780.804 50.1748 775.451 52.8206 772.01 58.1122C768.952 63.4037 767.422 71.9516 767.422 83.7558V382.932C767.422 392.294 768.569 400.028 770.863 406.133C773.54 411.832 779.466 414.681 788.642 414.681C796.288 414.681 801.641 412.239 804.699 407.354C808.14 402.47 809.861 394.533 809.861 383.542V263.872H866.636V374.384C866.636 411.832 859.945 437.882 846.564 452.536C833.565 466.782 814.066 473.906 788.068 473.906Z" fill="#fff" class="footer_logo_letter" data-svg-origin="710.073974609375 0.7192379236221313" transform="matrix(1,0,0,1,0,236.59338)" style="translate: none; rotate: none; scale: none; transform-origin: 0px 0px;"></path><path d="M959.443 473.906C933.445 473.906 913.946 466.782 900.947 452.536C887.948 437.882 881.448 411.832 881.448 374.384V98.4093C881.448 72.7657 884.507 52.8206 890.624 38.5741C896.741 24.3277 905.344 14.5587 916.431 9.26712C927.901 3.56853 942.238 0.719238 959.443 0.719238C976.647 0.719238 990.794 3.56853 1001.88 9.26712C1013.35 14.5587 1022.14 24.3277 1028.26 38.5741C1034.76 52.8206 1038.01 72.7657 1038.01 98.4093V374.384C1038.01 411.832 1031.32 437.882 1017.94 452.536C1004.94 466.782 985.441 473.906 959.443 473.906ZM960.016 414.681C967.663 414.681 973.206 412.035 976.647 406.744C980.088 401.045 981.809 392.294 981.809 380.49V95.3565C981.809 77.8537 980.088 66.0495 976.647 59.9439C973.206 53.4312 967.663 50.1748 960.016 50.1748C952.37 50.1748 946.826 53.4312 943.385 59.9439C939.944 66.0495 938.224 77.8537 938.224 95.3565V380.49C938.224 392.294 939.944 401.045 943.385 406.744C946.826 412.035 952.37 414.681 960.016 414.681Z" fill="#fff" class="footer_logo_letter" data-svg-origin="881.447998046875 0.7192379236221313" transform="matrix(1,0,0,1,0,236.59338)" style="translate: none; rotate: none; scale: none; transform-origin: 0px 0px;"></path><path d="M1114.72 5.60372V469.632H1057.37V5.60372H1114.72ZM1057.37 413.46H1189.27V469.632H1057.37V413.46Z" fill="#fff" class="footer_logo_letter" data-svg-origin="1057.3699951171875 5.603720188140869" transform="matrix(1,0,0,1,0,232.01413)" style="translate: none; rotate: none; scale: none; transform-origin: 0px 0px;"></path><path d="M1271.39 473.906C1245.39 473.906 1225.89 466.782 1212.89 452.536C1199.89 437.882 1193.4 411.832 1193.4 374.384V98.4093C1193.4 72.7657 1196.45 52.8206 1202.57 38.5741C1208.69 24.3277 1217.29 14.5587 1228.38 9.26712C1239.85 3.56853 1254.18 0.719238 1271.39 0.719238C1288.59 0.719238 1302.74 3.56853 1313.83 9.26712C1325.3 14.5587 1334.09 24.3277 1340.21 38.5741C1346.71 52.8206 1349.96 72.7657 1349.96 98.4093V374.384C1349.96 411.832 1343.27 437.882 1329.89 452.536C1316.89 466.782 1297.39 473.906 1271.39 473.906ZM1271.96 414.681C1279.61 414.681 1285.15 412.035 1288.59 406.744C1292.04 401.045 1293.76 392.294 1293.76 380.49V95.3565C1293.76 77.8537 1292.04 66.0495 1288.59 59.9439C1285.15 53.4312 1279.61 50.1748 1271.96 50.1748C1264.32 50.1748 1258.77 53.4312 1255.33 59.9439C1251.89 66.0495 1250.17 77.8537 1250.17 95.3565V380.49C1250.17 392.294 1251.89 401.045 1255.33 406.744C1258.77 412.035 1264.32 414.681 1271.96 414.681Z" fill="#fff" class="footer_logo_letter" data-svg-origin="1193.4000244140625 0.7192379236221313" transform="matrix(1,0,0,1,0,236.59338)" style="translate: none; rotate: none; scale: none; transform-origin: 0px 0px;"></path><path d="M1369.32 5.60372H1450.18C1466.62 5.60372 1480.57 9.06358 1492.04 15.9833C1503.51 22.903 1511.92 32.672 1517.28 45.2903C1523.01 57.5016 1525.88 71.7481 1525.88 88.0298V166.792C1525.88 186.737 1522.44 202.205 1515.56 213.195C1508.68 224.185 1499.12 230.698 1486.88 232.733V233.344C1499.5 234.972 1509.06 240.467 1515.56 249.829C1522.06 259.191 1525.31 272.013 1525.31 288.294V440.935C1525.31 449.076 1525.5 454.571 1525.88 457.421C1526.64 460.27 1527.79 462.509 1529.32 464.137V469.632H1474.27L1473.12 467.19C1471.97 463.119 1471.21 457.624 1470.82 450.704C1470.44 443.378 1470.25 431.573 1470.25 415.292V288.905C1470.25 281.171 1468.91 275.676 1466.24 272.42C1463.94 268.756 1459.74 266.925 1453.62 266.925H1435.84C1432.4 266.925 1429.92 267.942 1428.39 269.978C1427.24 272.013 1426.67 275.676 1426.67 280.968V469.632H1369.32V5.60372ZM1452.47 207.09C1457.83 207.09 1462.03 205.054 1465.09 200.984C1468.53 196.507 1470.25 189.79 1470.25 180.835V91.0826C1470.25 82.1277 1468.53 75.0044 1465.09 69.7129C1461.65 64.0143 1455.15 61.165 1445.59 61.165H1426.67V207.09H1452.47Z" fill="#fff" class="footer_logo_letter" data-svg-origin="1369.3199462890625 5.603720188140869" transform="matrix(1,0,0,1,0,232.01413)" style="translate: none; rotate: none; scale: none; transform-origin: 0px 0px;"></path><path d="M1617.43 473.906C1600.23 473.906 1585.89 471.056 1574.42 465.358C1563.33 459.252 1554.73 448.873 1548.61 434.219C1542.5 419.566 1539.44 399.621 1539.44 374.384V308.443H1596.21V381.1C1596.21 391.276 1597.55 399.417 1600.23 405.523C1602.9 411.628 1608.83 414.681 1618.01 414.681C1626.8 414.681 1632.53 412.035 1635.21 406.744C1637.89 401.045 1639.22 393.515 1639.22 384.153C1639.22 382.932 1639.22 381.914 1639.22 381.1V322.486C1638.84 311.496 1636.93 301.32 1633.49 291.958C1630.05 282.189 1624.12 273.844 1615.71 266.925L1585.32 241.892C1583.4 239.856 1581.68 238.228 1580.16 237.007C1579.01 235.786 1577.48 234.361 1575.57 232.733C1567.16 224.185 1560.85 216.045 1556.64 208.311C1551.29 199.356 1547.28 189.383 1544.6 178.393C1542.3 167.403 1540.97 153.767 1540.58 137.485C1540.58 133.822 1540.58 130.362 1540.58 127.106V96.5777C1540.58 71.7481 1543.45 52.4136 1549.19 38.5741C1555.3 24.3277 1563.91 14.5587 1574.99 9.26712C1586.46 3.56853 1600.42 0.719238 1616.86 0.719238C1633.68 0.719238 1647.64 3.56853 1658.72 9.26712C1670.19 14.5587 1679.18 24.3277 1685.68 38.5741C1692.18 52.8206 1695.43 72.5622 1695.43 97.7988V164.35H1638.65V95.9671C1638.65 95.56 1638.65 95.3565 1638.65 95.3565C1638.65 94.9495 1638.65 94.5424 1638.65 94.1354C1638.65 83.9593 1637.31 75.615 1634.64 69.1023C1631.96 62.1826 1626.23 58.7227 1617.43 58.7227C1608.64 58.7227 1603.09 62.1826 1600.8 69.1023C1598.51 75.615 1597.36 84.3664 1597.36 95.3565C1597.36 95.3565 1597.36 95.56 1597.36 95.9671V147.254C1597.36 147.661 1597.36 148.272 1597.36 149.086C1597.36 155.599 1597.93 161.297 1599.08 166.182C1600.61 170.659 1602.9 175.137 1605.96 179.614C1608.64 183.685 1611.89 187.959 1615.71 192.436C1619.92 196.914 1624.31 201.187 1628.9 205.258L1638.65 214.416L1671.91 243.723C1681.85 252.678 1688.16 262.854 1690.84 274.252C1693.9 285.649 1695.62 302.745 1696 325.539V374.384C1696 397.585 1693.32 416.513 1687.97 431.166C1683 445.413 1674.78 456.199 1663.31 463.526C1651.84 470.446 1636.55 473.906 1617.43 473.906Z" fill="#fff" class="footer_logo_letter" data-svg-origin="1539.43994140625 0.7192379236221313" transform="matrix(1,0,0,1,0,236.59338)" style="translate: none; rotate: none; scale: none; transform-origin: 0px 0px;"></path></g></svg>